<svg id="Capa_1" enable-background="new 0 0 512 512" height="512" viewBox="0 0 512 512" width="512" xmlns="http://www.w3.org/2000/svg"><g><path d="m256 231c-55.622 0-100 45.232-100 100 0 55.141 44.86 100 100 100 55.139 0 100-44.644 100-100 0-55.228-44.757-100-100-100zm-49.496 37.156c1.982.058 3.946.096 5.863.121 5.335.068 14.194.182 16.334 1.708 1.04 3.063-3.446 8.167-8.965 14.023-6.22 6.601-13.271 14.082-11.728 23.585 1.698 10.515 10.278 14.797 15.405 17.354 1.467.732 3.87 1.932 4.563 2.646-.188 3.419-4.826 12.558-10.987 22.137-9.012-9.79-23.933-24.413-39.689-33.142 3.48-19.079 13.847-36.322 29.204-48.432zm49.496 142.844c-41.154 0-75.137-31.239-79.512-71.248 17.738 12.812 33.379 32.24 33.573 32.483 1.899 2.381 4.778 3.765 7.818 3.765.052 0 .104 0 .156-.001 3.097-.049 5.998-1.529 7.853-4.011 7.674-10.232 24.017-34.251 21.863-47.591-1.706-10.507-10.283-14.787-15.408-17.345-1.242-.62-3.156-1.575-4.133-2.286 1.2-1.862 4.07-4.907 6.081-7.041 7.621-8.087 19.137-20.308 12.826-35.56-1.809-4.357-4.633-7.324-8.077-9.359 5.519-1.186 11.193-1.806 16.96-1.806 25.525 0 49.305 12.414 64.193 32.311-16.487-2.66-34.141-1.421-42.699 12.431-3.48 5.629-6.473 14.679-.962 25.819 3.195 6.461 8.361 12.111 13.831 18.094 6.842 7.484 13.917 15.224 15.903 23.64 1.003 4.251 2.181 12.502 2.381 27.946-14.578 12.771-33.114 19.759-52.647 19.759zm71.258-43.577c-.416-3.264-.923-6.167-1.525-8.72-3.182-13.479-12.44-23.606-20.608-32.541-11.118-12.163-13.104-15.883-10.616-19.906 3.534-5.721 18.737-5.436 37.732.479 2.486 7.805 3.76 15.944 3.76 24.266-.001 12.905-3.04 25.298-8.743 36.422z"/><circle cx="410" cy="378" r="10"/><path d="m386 131.751v-1.751c0-71.683-58.317-130-130-130-71.682 0-130 58.317-130 130v1.752c-48.886 17.908-75 72.686-75 126.068 0 42.357 15.865 88.257 44.674 129.242 35.24 50.137 87.75 91.852 156.07 123.986 1.348.634 2.802.951 4.256.951s2.908-.317 4.256-.951c52.333-24.614 95.786-55.21 129.155-90.937 3.77-4.036 3.554-10.364-.482-14.135-4.038-3.768-10.363-3.553-14.135.482-30.725 32.897-70.675 61.3-118.794 84.466-136.289-65.626-185-163.193-185-233.104 0-56.393 33.192-111.82 87.5-111.82 37.844 0 72.483 22.393 88.95 49.187 1.808 2.98 5.044 4.793 8.53 4.802h.026c3.476 0 6.711-1.816 8.529-4.78 16.353-26.54 50.793-49.209 88.965-49.209 54.588 0 87.5 55.628 87.5 111.82 0 24.643-6.128 51.289-17.722 77.056-2.267 5.037-.021 10.957 5.016 13.223 5.039 2.267 10.958.021 13.223-5.016 12.746-28.328 19.483-57.812 19.483-85.263 0-53.157-25.965-108.106-75-126.069zm-80 3.948c-24.155 10.325-40.8 26.584-50 37.557-9.2-10.973-25.845-27.233-50-37.557v-5.699c0-27.57 22.43-50 50-50s50 22.43 50 50zm47.5-9.699c-9.365 0-18.572 1.073-27.521 3.153-.458-38.207-31.666-69.153-69.979-69.153-38.314 0-69.521 30.946-69.979 69.153-8.95-2.08-18.157-3.153-27.521-3.153-4.192 0-8.35.274-12.45.809 1.695-59.184 50.363-106.809 109.95-106.809s108.256 47.625 109.95 106.809c-4.1-.535-8.258-.809-12.45-.809z"/></g></svg>