<svg height="512" viewBox="0 0 512 512" width="512" xmlns="http://www.w3.org/2000/svg"><g id="solid"><path d="m144 340.807v-96a32 32 0 0 0 -64 0v96a32 32 0 0 0 64 0zm-24-12.807a8 8 0 0 1 -16 0v-48a8 8 0 0 1 16 0zm0-80a8 8 0 0 1 -16 0v-8a8 8 0 0 1 16 0z"/><path d="m66.626 229.178a40.053 40.053 0 0 0 -34.626 39.629v48a40.053 40.053 0 0 0 34.626 39.628 47.785 47.785 0 0 1 -2.626-15.628v-96a47.786 47.786 0 0 1 2.626-15.629z"/><path d="m382.41 437.4a16.015 16.015 0 0 0 -22.185-4.451l-26.636 17.731a16 16 0 1 0 17.735 26.635l26.636-17.735a16.017 16.017 0 0 0 4.45-22.18z"/><path d="m445.374 229.178a47.786 47.786 0 0 1 2.626 15.629v96a47.785 47.785 0 0 1 -2.626 15.628 40.053 40.053 0 0 0 34.626-39.628v-48a40.053 40.053 0 0 0 -34.626-39.629z"/><path d="m432 340.807v-96a32 32 0 0 0 -64 0v96a32 32 0 0 0 64 0z"/><path d="m424 382.349a47.646 47.646 0 0 1 -16 5.778v19.873a8 8 0 0 1 -3.606 6.686l-13.055 8.58a31.768 31.768 0 0 1 7.727 11.807l24.934-15.517z"/><path d="m432 208c0-97.047-78.953-176-176-176s-176 78.953-176 176v1.068a47.8 47.8 0 0 1 32-12.261c.147 0 .291.009.438.011a144 144 0 0 1 287.127 0c.146 0 .289-.011.435-.011a47.8 47.8 0 0 1 32 12.261z"/><path d="m296 320a8 8 0 0 1 4.8 1.6l19.2 14.4v-85a11.013 11.013 0 0 0 -11-11h-106a11.013 11.013 0 0 0 -11 11v58a11.013 11.013 0 0 0 11 11zm-8-48a8 8 0 1 1 -8 8 8 8 0 0 1 8-8zm-32 0a8 8 0 1 1 -8 8 8 8 0 0 1 8-8zm-32 0a8 8 0 1 1 -8 8 8 8 0 0 1 8-8z"/></g></svg>