<?xml version="1.0" encoding="iso-8859-1"?>
<!-- Generator: Adobe Illustrator 16.0.0, SVG Export Plug-In . SVG Version: 6.00 Build 0)  -->
<!DOCTYPE svg PUBLIC "-//W3C//DTD SVG 1.1//EN" "http://www.w3.org/Graphics/SVG/1.1/DTD/svg11.dtd">
<svg version="1.1" id="Capa_1" xmlns="http://www.w3.org/2000/svg" xmlns:xlink="http://www.w3.org/1999/xlink" x="0px" y="0px"
	 width="35.631px" height="35.631px" viewBox="0 0 35.631 35.631" style="enable-background:new 0 0 35.631 35.631;"
	 xml:space="preserve">
<g>
	<g>
		<path d="M20.918,22.716l0.01-2.624l5.074-6.126l0,0l0.191-0.19l-4.189-4.24L21.79,9.748l-1.394-0.49l0.288-1.505l-1.799,0.514
			l-0.826-1.734l-1.536,1.601l-1.19-1.379l-0.56,1.821l-1.91-0.625l0.72,1.608l-1.39,0.391l1.169,1.058
			c-0.05,0.167-0.102,0.333-0.13,0.507c-0.036,0.216-0.056,0.44-0.056,0.667c0,2.238,1.812,4.049,4.05,4.049
			c2.231,0,4.045-1.811,4.045-4.049c0-0.065-0.015-0.125-0.019-0.189l1.877,1.9l-2.631,3.175l-1.271-0.229
			c0,0-0.554,1.702-2.077,1.791c-1.524,0.089-2.102-1.791-2.102-1.791l-2.446,0.577l-1.961,5.303H5.276v1.93h1.158v10.982h0.942
			V24.645h6.232l0.015,1.36h-1.53v0.662h1.312v8.458h2.897v-8.458h1.917v8.458h2.898v-8.458h1.14v-0.662h-1.34l0.002-1.36h7.049
			v10.983h0.94V24.645h1.447v-1.929H20.918z M12.677,22.716l0.882-2.452l0.028,2.452H12.677z"/>
		<rect x="16.803" y="3.689" width="1.439" height="1.369"/>
		<path d="M17.26,1.356c0.069-0.121,0.187-0.18,0.353-0.18c0.268,0,0.401,0.118,0.401,0.354c0,0.079-0.022,0.145-0.068,0.2
			c-0.047,0.056-0.103,0.103-0.17,0.142c-0.066,0.04-0.137,0.075-0.211,0.108c-0.074,0.032-0.138,0.062-0.194,0.09
			c-0.133,0.074-0.235,0.165-0.304,0.277c-0.069,0.11-0.118,0.224-0.145,0.339C16.893,2.8,16.88,2.914,16.88,3.024
			c0,0.107,0.002,0.194,0.007,0.264h1.28c0-0.079,0.005-0.147,0.018-0.207c0.011-0.061,0.031-0.113,0.059-0.16
			c0.027-0.046,0.066-0.091,0.117-0.131c0.052-0.042,0.116-0.084,0.194-0.125c0.115-0.061,0.229-0.119,0.339-0.177
			c0.11-0.056,0.21-0.129,0.3-0.217c0.091-0.088,0.163-0.197,0.219-0.33c0.055-0.131,0.084-0.301,0.084-0.514
			c-0.01-0.153-0.048-0.312-0.115-0.479c-0.066-0.17-0.172-0.324-0.314-0.464c-0.145-0.141-0.331-0.256-0.561-0.347
			C18.274,0.046,17.991,0,17.654,0c-0.342,0-0.631,0.053-0.869,0.156c-0.237,0.103-0.432,0.239-0.584,0.405
			c-0.152,0.167-0.266,0.354-0.339,0.563c-0.074,0.209-0.118,0.423-0.131,0.641h1.445C17.163,1.612,17.19,1.477,17.26,1.356z"/>
	</g>
</g>
<g>
</g>
<g>
</g>
<g>
</g>
<g>
</g>
<g>
</g>
<g>
</g>
<g>
</g>
<g>
</g>
<g>
</g>
<g>
</g>
<g>
</g>
<g>
</g>
<g>
</g>
<g>
</g>
<g>
</g>
</svg>
