<svg id="Capa_1" enable-background="new 0 0 510 510" height="512" viewBox="0 0 510 510" width="512" xmlns="http://www.w3.org/2000/svg"><path d="m480 415.991h-18c0-3.318 0-241.769 0-250h33c15.306 0 20.745-20.359 7.488-27.997l-232.605-134.018c-9.181-5.289-20.586-5.289-29.767 0l-232.604 134.018c-13.262 7.641-7.812 27.997 7.488 27.997h33v250h-18c-16.542 0-30 13.458-30 30v34c0 16.542 13.458 30 30 30h450c16.542 0 30-13.458 30-30v-34c0-16.542-13.458-30-30-30zm-225-385.967 183.919 105.967c-55.382 0-323.413 0-367.838 0zm177 351.967v34h-354v-34zm-354-30v-186h34v186zm64 0v-186h66v186zm96 0v-186h34v186zm64 0v-186h66v186zm96 0v-186h34v186zm82 128h-450v-34h450c.019 34.753.1 34 0 34z"/></svg>